<svg width="298" height="298" viewBox="0 0 298 298" fill="none" xmlns="http://www.w3.org/2000/svg">
<path d="M182.26 63.0603C196.807 48.5132 220.393 48.5132 234.94 63.0603C249.487 77.6073 249.487 101.193 234.94 115.74L216.697 133.982C212.333 138.346 212.333 145.422 216.697 149.786C221.061 154.15 228.137 154.15 232.501 149.786L250.744 131.544C274.019 108.268 274.019 70.5317 250.744 47.2564C227.468 23.9812 189.732 23.9812 166.456 47.2564L121.756 91.9564C98.4812 115.232 98.4812 152.968 121.756 176.244C122.843 177.33 123.963 178.367 125.112 179.354C129.795 183.375 136.85 182.838 140.871 178.156C144.891 173.473 144.354 166.418 139.672 162.397C138.951 161.778 138.246 161.126 137.56 160.44C123.013 145.893 123.013 122.307 137.56 107.76L182.26 63.0603Z" fill="black"/>
<path d="M172.888 118.645C168.205 114.625 161.15 115.162 157.129 119.844C153.109 124.527 153.646 131.582 158.328 135.603C159.049 136.222 159.754 136.874 160.44 137.56C174.987 152.107 174.987 175.693 160.44 190.24L115.74 234.94C101.193 249.487 77.6073 249.487 63.0603 234.94C48.5132 220.392 48.5132 196.807 63.0603 182.26L81.3029 164.018C85.667 159.653 85.667 152.578 81.3029 148.214C76.9388 143.85 69.8631 143.85 65.499 148.214L47.2564 166.456C23.9812 189.732 23.9812 227.468 47.2564 250.743C70.5317 274.019 108.268 274.019 131.544 250.743L176.244 206.043C199.519 182.768 199.519 145.032 176.244 121.756C175.157 120.67 174.037 119.633 172.888 118.645Z" fill="black"/>
</svg>
